<svg width="157" height="157" viewBox="0 0 157 157" fill="none" xmlns="http://www.w3.org/2000/svg">
<g filter="url(#filter0_f_50_4)">
<path d="M89.4835 45.7786C89.4835 63.8818 84.5916 78.5573 78.5573 78.5573C72.5229 78.5573 67.6311 63.8818 67.6311 45.7786C67.6311 27.6755 72.5229 13 78.5573 13C84.5916 13 89.4835 27.6755 89.4835 45.7786Z" fill="#0400ED"/>
<path d="M111.336 67.6311C129.439 67.6311 144.115 72.5229 144.115 78.5573C144.115 84.5917 129.439 89.4835 111.336 89.4835C93.2328 89.4835 78.5573 84.5917 78.5573 78.5573C78.5573 72.5229 93.2328 67.6311 111.336 67.6311Z" fill="#FF66FF"/>
<path d="M67.6311 111.336C67.6311 93.2328 72.5229 78.5573 78.5573 78.5573C84.5916 78.5573 89.4835 93.2328 89.4835 111.336C89.4835 129.439 84.5916 144.115 78.5573 144.115C72.5229 144.115 67.6311 129.439 67.6311 111.336Z" fill="#0400ED"/>
<path d="M45.7786 67.6311C63.8818 67.6311 78.5573 72.5229 78.5573 78.5573C78.5573 84.5917 63.8818 89.4835 45.7786 89.4835C27.6755 89.4835 13 84.5917 13 78.5573C13 72.5229 27.6755 67.6311 45.7786 67.6311Z" fill="#FF66FF"/>
</g>
<g filter="url(#filter1_f_50_4)">
<path d="M93.5729 47.4389C91.2651 65.3944 84.5424 79.3265 78.5573 78.5573C72.5721 77.788 69.591 62.6086 71.8988 44.6532C74.2065 26.6977 80.9293 12.7656 86.9144 13.5348C92.8996 14.3041 95.8807 29.4835 93.5729 47.4389Z" fill="#0400ED"/>
<path d="M112.461 71.8988C130.417 74.2066 144.349 80.9293 143.58 86.9144C142.81 92.8996 127.631 95.8807 109.676 93.5729C91.7201 91.2652 77.788 84.5424 78.5573 78.5573C79.3265 72.5721 94.5059 69.591 112.461 71.8988Z" fill="#FF66FF"/>
<path d="M63.5416 109.676C65.8494 91.7202 72.5721 77.788 78.5573 78.5573C84.5424 79.3265 87.5235 94.5059 85.2157 112.461C82.908 130.417 76.1852 144.349 70.2001 143.58C64.2149 142.81 61.2338 127.631 63.5416 109.676Z" fill="#0400ED"/>
<path d="M47.4389 63.5416C65.3944 65.8494 79.3265 72.5721 78.5573 78.5573C77.788 84.5424 62.6086 87.5235 44.6532 85.2157C26.6977 82.908 12.7656 76.1852 13.5349 70.2001C14.3041 64.2149 29.4835 61.2338 47.4389 63.5416Z" fill="#FF66FF"/>
</g>
<g style="mix-blend-mode:screen" filter="url(#filter2_b_50_4)">
<path d="M144.115 41.9787C144.115 43.2488 143.511 44.4434 142.489 45.1974L101.639 75.3386C99.4721 76.9374 99.4721 80.1772 101.639 81.776L142.489 111.917C143.511 112.671 144.115 113.866 144.115 115.136V140.115C144.115 142.324 142.324 144.115 140.115 144.115H115.147C113.871 144.115 112.671 143.506 111.918 142.475L81.7863 101.262C80.1884 99.0759 76.9262 99.0759 75.3282 101.262L45.1968 142.475C44.4436 143.506 43.2439 144.115 41.9677 144.115H17C14.7909 144.115 13 142.324 13 140.115V115.138C13 113.867 13.6045 112.671 14.6284 111.917L55.5626 81.7784C57.7338 80.1798 57.7338 76.9348 55.5626 75.3362L14.6284 45.1973C13.6045 44.4434 13 43.2477 13 41.9762V17C13 14.7909 14.7909 13 17 13H41.9633C43.242 13 44.4436 13.6113 45.1965 14.6449L75.3241 56.0055C76.9217 58.1987 80.1929 58.1987 81.7905 56.0055L111.918 14.6449C112.671 13.6113 113.873 13 115.151 13H140.115C142.324 13 144.115 14.7909 144.115 17V41.9787Z" fill="#E6A1FF" fill-opacity="0.3"/>
<path d="M141.896 44.3927L101.045 74.5339C98.3367 76.5324 98.3367 80.5822 101.045 82.5806L141.896 112.722C142.662 113.287 143.115 114.183 143.115 115.136V140.115C143.115 141.771 141.771 143.115 140.115 143.115H115.147C114.19 143.115 113.29 142.658 112.725 141.885L82.5936 100.671C80.5962 97.9393 76.5184 97.9393 74.521 100.671L44.3895 141.885C43.8246 142.658 42.9249 143.115 41.9677 143.115H17C15.3431 143.115 14 141.771 14 140.115V115.138C14 114.185 14.4534 113.288 15.2213 112.723L56.1555 82.5836C58.8695 80.5854 58.8695 76.5292 56.1555 74.5309L15.2213 44.392C14.4534 43.8266 14 42.9298 14 41.9762V17C14 15.3431 15.3431 14 17 14H41.9633C42.9223 14 43.8236 14.4585 44.3882 15.2337L74.5158 56.5942C76.5127 59.3357 80.6018 59.3357 82.5988 56.5942L112.726 15.2337C113.291 14.4585 114.192 14 115.151 14H140.115C141.771 14 143.115 15.3431 143.115 17V41.9787C143.115 42.9313 142.662 43.8272 141.896 44.3927Z" stroke="white" stroke-width="2"/>
</g>
<defs>
<filter id="filter0_f_50_4" x="9" y="9" width="139.115" height="139.115" filterUnits="userSpaceOnUse" color-interpolation-filters="sRGB">
<feFlood flood-opacity="0" result="BackgroundImageFix"/>
<feBlend mode="normal" in="SourceGraphic" in2="BackgroundImageFix" result="shape"/>
<feGaussianBlur stdDeviation="2" result="effect1_foregroundBlur_50_4"/>
</filter>
<filter id="filter1_f_50_4" x="0.404455" y="0.404455" width="156.306" height="156.306" filterUnits="userSpaceOnUse" color-interpolation-filters="sRGB">
<feFlood flood-opacity="0" result="BackgroundImageFix"/>
<feBlend mode="normal" in="SourceGraphic" in2="BackgroundImageFix" result="shape"/>
<feGaussianBlur stdDeviation="6.55" result="effect1_foregroundBlur_50_4"/>
</filter>
<filter id="filter2_b_50_4" x="5" y="5" width="147.115" height="147.115" filterUnits="userSpaceOnUse" color-interpolation-filters="sRGB">
<feFlood flood-opacity="0" result="BackgroundImageFix"/>
<feGaussianBlur in="BackgroundImageFix" stdDeviation="4"/>
<feComposite in2="SourceAlpha" operator="in" result="effect1_backgroundBlur_50_4"/>
<feBlend mode="normal" in="SourceGraphic" in2="effect1_backgroundBlur_50_4" result="shape"/>
</filter>
</defs>
</svg>
